# AST/ASF file generated using VICON BodyLanguage
# -----------------------------------------------
:version 1.10
:name VICON
:units
  mass 1.0
  length 0.45
  angle deg
:documentation
   .ast/.asf automatically generated from VICON data using
   VICON BodyBuilder and BodyLanguage model FoxedUp or BRILLIANT.MOD
:root
   order TX TY TZ RX RY RZ
   axis XYZ
   position 0 0 0  
   orientation 0 0 0 
:bonedata
  begin
     id 1 
     name lhipjoint
     direction 0.653368 -0.678499 0.335782 
     length 2.51848 
     axis 0 0 0  XYZ
  end
  begin
     id 2 
     name lfemur
     direction 0.34202 -0.939693 0  
     length 6.57749  
     axis 0 0 20  XYZ
    dof rx ry rz
    limits (-160.0 20.0)
           (-70.0 70.0)
           (-60.0 70.0)
  end
  begin
     id 3 
     name ltibia
     direction 0.34202 -0.939693 0   
     length 7.94618   
     axis 0 0 20   XYZ
    dof rx
    limits (-10.0 170.0)
  end
  begin
     id 4 
     name lfoot
     direction 0.0811271 -0.222895 0.971461   
     length 2.31339   
     axis -90 7.62852e-016 20   XYZ
    dof rx rz
    limits (-45.0 90.0)
           (-70.0 20.0)
  end
  begin
     id 5 
     name ltoes
     direction 1.53568e-011 -4.21885e-011 1   
     length 1.15935   
     axis -90 7.62852e-016 20   XYZ
    dof rx
    limits (-90.0 20.0)
  end
  begin
     id 6 
     name rhipjoint
     direction -0.640058 -0.688614 0.340788   
     length 2.48149  
     axis 0 0 0  XYZ 
  end
  begin
     id 7 
     name rfemur
     direction -0.34202 -0.939693 0   
     length 6.57875   
     axis 0 0 -20   XYZ
    dof rx ry rz
    limits (-160.0 20.0)
           (-70.0 70.0)
           (-70.0 60.0)
  end
  begin
     id 8 
     name rtibia
     direction -0.34202 -0.939693 0   
     length 7.977   
     axis 0 0 -20   XYZ
    dof rx
    limits (-10.0 170.0)
 end
 begin
     id 9 
     name rfoot
     direction -0.0979793 -0.269196 0.958089   
     length 2.19857  
     axis -90 -7.62852e-016 -20   XYZ
    dof rx rz
    limits (-45.0 90.0)
           (-20.0 70.0)
  end
  begin
     id 10 
     name rtoes
     direction -1.53556e-011 -4.21868e-011 1   
     length 1.09838   
     axis -90 -7.62852e-016 -20   XYZ
    dof rx
    limits (-90.0 20.0)
  end
  begin
     id 11 
     name lowerback
     direction 0.0149039 0.998517 -0.0523597   
     length 2.10809   
     axis 0 0 0   XYZ
    dof rx ry rz
    limits (-20.0 45.0)
           (-30.0 30.0)
           (-30.0 30.0)
  end
  begin
     id 12 
     name upperback
     direction -0.00882659 0.999418 -0.0329624   
     length 2.1102   
     axis 0 0 0   XYZ
    dof rx ry rz
    limits (-20.0 45.0)
           (-30.0 30.0)
           (-30.0 30.0)
  end
  begin
     id 13 
     name thorax
     direction -0.0165585 0.999826 -0.0085833   
     length 2.11039   
     axis 0 0 0   XYZ
    dof rx ry rz
    limits (-20.0 45.0)
           (-30.0 30.0)
           (-30.0 30.0)
  end
  begin
     id 14 
     name lowerneck
     direction -0.0130877 0.999911 0.00260353   
     length 1.73253   
     axis 0 0 0   XYZ
    dof rx ry rz
    limits (-20.0 45.0)
           (-30.0 30.0)
           (-30.0 30.0)
  end
  begin
     id 15 
     name upperneck
     direction -0.0348454 0.928205 -0.370435   
     length 1.66692   
     axis 0 0 0   XYZ
    dof rx ry rz
    limits (-20.0 45.0)
           (-30.0 30.0)
           (-30.0 30.0)
  end
  begin
     id 16
     name head
     direction -0.00807754 0.992494 -0.122026  
     length 1.72765  
     axis 0 0 0   XYZ
    dof rx ry rz
    limits (-20.0 45.0)
           (-30.0 30.0)
           (-30.0 30.0)
  end
  begin
     id 17 
     name lclavicle
     direction 0.987582 0.144023 0.0627671  
     length 3.49235  
     axis 0 0 0   XYZ
    dof ry rz
    limits (-20.0 10.0)
           (0.0 20.0)
  end
  begin
     id 18 
     name lhumerus
     direction 1 -4.48958e-011 -1.45183e-018   
     length 5.41917   
     axis 180 -30 -90   XYZ
    dof rx ry rz
    limits (-60.0 90.0)
           (-90.0 90.0)
           (-90.0 90.0)
  end
  begin
     id 19
     name lradius
     direction 1 -4.48999e-011 5.75106e-027   
     length 2.44373   
     axis 180 -30 -90   XYZ
    dof rx
    limits (-10.0 170.0)
  end
  begin
     id 20
     name lwrist
     direction 1 -4.48987e-011 1.53461e-026   
     length 1.22186   
     axis -1.09697e-014 90 90   XYZ
    dof ry
    limits (-180.0 0.0)
 end
  begin
     id 21 
     name lhand
     direction 1 -4.48881e-011 3.06923e-026   
     length 0.727502   
     axis -1.95843e-014 90 90   XYZ
    dof rx rz
    limits (-90.0 90.0)
           (-45.0 45.0)
  end
  begin
     id 22 
     name lfingers
     direction 1 -4.48907e-011 6.13845e-026   
     length 0.586531   
     axis -3.91686e-014 90 90   XYZ
    dof rx
    limits (0.0 90.0)
  end
  begin
     id 23
     name lthumb
     direction 0.707107 -6.3487e-011 0.707107   
     length 0.842145   
     axis -90 45 2.85299e-015   XYZ
    dof rx rz
    limits (-45.0 45.0)
           (-45.0 45.0)
  end
  begin
     id 24 
     name rclavicle
     direction -0.980998 0.169556 0.0943023   
     length 3.29272  
     axis 0 0 0   XYZ 
    dof ry rz
    limits (-10.0 20.0)
           (-20.0 0.0)
  end
  begin
     id 25 
     name rhumerus
     direction -1 -1.83355e-005 2.45537e-005  
     length 5.58976   
     axis 180 30 90   XYZ
    dof rx ry rz
    limits (-90.0 60.0)
           (-90.0 90.0)
           (-90.0 90.0)
  end
  begin
     id 26 
     name rradius
     direction -1 -4.48967e-011 5.97228e-027   
     length 2.4806   
     axis 180 30 90   XYZ
    dof rx
    limits (-10.0 170.0)
  end
  begin
     id 27 
     name rwrist
     direction -1 -4.48963e-011 1.53461e-026   
     length 1.2403   
     axis -1.09697e-014 -90 -90   XYZ
    dof ry
    limits (-180.0 0.0)
  end
  begin
     id 28
     name rhand
     direction -1 -4.48881e-011 3.06923e-026   
     length 0.816009   
     axis -1.95843e-014 -90 -90   XYZ
    dof rx rz
    limits (-90.0 90.0)
           (-45.0 45.0)
  end
  begin
     id 29
     name rfingers
     direction -1 -4.49018e-011 6.13845e-026   
     length 0.657887   
     axis -3.91686e-014 -90 -90   XYZ
    dof rx
    limits (0.0 90.0)
  end
  begin
     id 30
     name rthumb
     direction -0.707107 -6.34872e-011 0.707107   
     length 0.944599   
     axis -90 -45 -2.85299e-015   XYZ
    dof rx rz
    limits (-45.0 45.0)
           (-45.0 45.0)
  end
:hierarchy
  begin
    root lhipjoint rhipjoint lowerback
    lhipjoint lfemur
    lfemur ltibia
    ltibia lfoot
    lfoot ltoes
    rhipjoint rfemur
    rfemur rtibia
    rtibia rfoot
    rfoot rtoes
    lowerback upperback
    upperback thorax
    thorax lowerneck lclavicle rclavicle
    lowerneck upperneck
    upperneck head
    lclavicle lhumerus
    lhumerus lradius
    lradius lwrist
    lwrist lhand lthumb
    lhand lfingers
    rclavicle rhumerus
    rhumerus rradius
    rradius rwrist
    rwrist rhand rthumb
    rhand rfingers
  end

#!OML:ASF F:\VICON\USERDATA\INSTALL\rory3\rory3.ASF
:FULLY-SPECIFIED
:DEGREES
43
root -3.67943 17.3224 14.7761 -155.691 -20.7378 -176.26
lowerback -14.8038 1.73165 -2.06005
upperback -6.501 1.83518 0.351189
thorax 1.3392 0.642972 1.80571
lowerneck -12.7937 1.71639 -0.266799
upperneck 43.7455 -4.42859 2.98068
head 18.9135 -3.0978 0.0685286
rclavicle -2.41026e-014 2.10712e-014
rhumerus -47.5895 -24.7887 -60.2022
rradius 3.57285
rwrist 24.9857
rhand -8.94581 16.9738
rfingers 7.12502
rthumb 16.9986 -12.3024
lclavicle -2.41026e-014 2.10712e-014
lhumerus -48.308 13.9347 69.1186
lradius 43.3382
lwrist 7.44079
lhand 2.76337 16.2863
lfingers 7.12502
lthumb 28.2344 44.1791
rfemur -11.0923 -5.20031 30.3583
rtibia 28.7614
rfoot -2.74173 -30.4317
rtoes 6.5731
lfemur -37.5378 -2.33523 -24.4579
ltibia 26.8007
lfoot -39.2161 27.5357
ltoes 10.6781
44
root -3.69065 17.3228 14.7556 -155.815 -20.6274 -176.255
lowerback -14.7953 1.67752 -2.16183
upperback -6.45684 1.78327 0.351497
thorax 1.37961 0.620533 1.85584
lowerneck -12.6407 1.75254 -0.157209
upperneck 43.6647 -4.36989 2.91668
head 18.8116 -3.06996 0.0320414
rclavicle 2.03506e-014 1.90833e-014
rhumerus -47.7544 -24.5721 -60.3076
rradius 4.03751
rwrist 24.6304
rhand -9.10722 18.0802
rfingers 7.12502
rthumb 16.8432 -11.2093
lclavicle 2.03506e-014 1.90833e-014
lhumerus -48.266 13.9405 69.3949
lradius 43.5814
lwrist 6.62603
lhand 3.32066 16.4948
lfingers 7.12502
lthumb 28.7669 44.2984
rfemur -10.8708 -5.19979 30.2343
rtibia 28.7091
rfoot -2.33537 -30.3629
rtoes 6.39224
lfemur -37.3343 -2.49022 -24.4101
ltibia 26.8666
lfoot -39.7991 27.4968
ltoes 11.2549
45
root -3.70289 17.323 14.7362 -155.98 -20.5712 -176.3
lowerback -14.6215 1.74756 -2.20481
upperback -6.53011 1.8779 0.196856
thorax 1.20952 0.6678 1.72743
lowerneck -12.3118 1.71905 0.0914368
upperneck 43.6248 -4.53208 2.90575
head 18.6968 -3.11236 -0.0462433
rclavicle 1.2275e-014 4.25399e-014
rhumerus -48.2119 -24.6822 -60.2665
rradius 4.49275
rwrist 24.3142
rhand -8.82569 18.5769
rfingers 7.12502
rthumb 17.1142 -10.6893
lclavicle 1.2275e-014 4.25399e-014
lhumerus -48.326 13.1919 69.8995
lradius 44.1523
lwrist 6.05486
lhand 3.46602 17.2811
lfingers 7.12502
lthumb 28.9058 45.061
rfemur -10.5368 -5.31878 30.0833
rtibia 28.6092
rfoot -1.68066 -30.1699
rtoes 5.60006
lfemur -37.0784 -2.76801 -24.3773
ltibia 26.9855
lfoot -40.3663 27.5178
ltoes 11.7541
46
root -3.71114 17.3205 14.7211 -156.151 -20.559 -176.232
lowerback -14.4458 1.78653 -2.17241
upperback -6.61573 1.91589 0.13983
thorax 1.0277 0.685858 1.64952
lowerneck -11.9915 1.71411 0.250171
upperneck 43.6164 -4.61415 2.86301
head 18.6012 -3.14481 -0.109062
rclavicle 3.28989e-014 3.73715e-014
rhumerus -48.4539 -24.6783 -60.2368
rradius 4.82853
rwrist 23.9611
rhand -8.32553 18.5567
rfingers 7.12502
rthumb 17.5956 -10.6671
lclavicle 3.28989e-014 3.73715e-014
lhumerus -48.4983 12.5833 70.3736
lradius 44.7579
lwrist 5.56025
lhand 3.75363 17.4626
lfingers 7.12502
lthumb 29.1805 45.1952
rfemur -10.2533 -5.37119 30.0793
rtibia 28.5255
rfoot -1.28827 -30.0499
rtoes 5.64408
lfemur -36.89 -3.08999 -24.1959
ltibia 27.1004
lfoot -40.7813 27.7151
ltoes 12.3449
47
root -3.71738 17.3203 14.7075 -156.355 -20.6726 -175.967
lowerback -14.3653 1.74242 -1.96685
upperback -6.61285 1.83028 0.218938
thorax 0.99728 0.641826 1.60181
lowerneck -11.8892 1.75501 0.287844
upperneck 43.6481 -4.62067 2.90796
head 18.5953 -3.1478 -0.0976751
rclavicle -9.79014e-015 -2.34566e-014
rhumerus -48.282 -24.5865 -60.3863
rradius 4.69233
rwrist 23.791
rhand -8.44213 18.913
rfingers 7.12502
rthumb 17.4834 -10.3208
lclavicle -9.79014e-015 -2.34566e-014
lhumerus -48.5309 12.3742 70.694
lradius 45.0583
lwrist 5.05561
lhand 3.91256 17.394
lfingers 7.12502
lthumb 29.3322 45.1001
rfemur -10.067 -5.47378 30.3038
rtibia 28.4938
rfoot -1.10836 -29.9652
rtoes 6.28672
lfemur -36.7885 -3.38536 -23.7955
ltibia 27.231
lfoot -41.0736 27.9171
ltoes 12.9906
48
root -3.7243 17.3202 14.699 -156.417 -20.7556 -175.858
lowerback -14.2978 1.60653 -1.91451
upperback -6.55007 1.64998 0.344256
thorax 1.03303 0.556071 1.67596
lowerneck -12.1245 1.81657 0.0560481
upperneck 43.7343 -4.52083 3.02356
head 18.721 -3.12872 0.0118054
rclavicle 6.20705e-014 2.34566e-014
rhumerus -47.5615 -24.4136 -60.6668
rradius 4.11414
rwrist 23.6803
rhand -8.94826 19.948
rfingers 7.12502
rthumb 16.9962 -9.32838
lclavicle 6.20705e-014 2.34566e-014
lhumerus -48.3716 12.7449 70.9
lradius 45.1493
lwrist 4.19603
lhand 4.3434 16.7453
lfingers 7.12502
lthumb 29.7435 44.3788
rfemur -10.0481 -5.59031 30.3675
rtibia 28.5455
rfoot -0.792627 -29.8424
rtoes 6.24601
lfemur -36.813 -3.71484 -23.5681
ltibia 27.3496
lfoot -41.2519 28.1738
ltoes 14.5203
49
root -3.73098 17.32 14.6895 -156.317 -20.7774 -175.888
lowerback -14.2979 1.38199 -2.02536
upperback -6.4931 1.36832 0.528621
thorax 1.09637 0.42134 1.89029
lowerneck -12.5332 1.91236 -0.293661
upperneck 43.8709 -4.25963 3.00856
head 18.9166 -3.07709 0.108735
rclavicle -9.24349e-015 -4.77083e-014
rhumerus -46.7665 -23.9376 -60.9313
rradius 4.01392
rwrist 23.4758
rhand -8.90347 20.4913
rfingers 7.12502
rthumb 17.0394 -8.78138
lclavicle -9.24349e-015 -4.77083e-014
lhumerus -48.2475 13.5131 71.0749
lradius 45.2805
lwrist 3.1063
lhand 5.03682 15.8421
lfingers 7.12502
lthumb 30.4051 43.3552
rfemur -10.2166 -5.66225 30.2872
rtibia 28.7185
rfoot -0.522225 -29.6761
rtoes 5.39546
lfemur -36.8896 -4.07429 -23.4877
ltibia 27.3988
lfoot -41.7374 28.0805
ltoes 16.6864
50
root -3.73651 17.3196 14.6759 -156.216 -20.8501 -175.739
lowerback -14.4727 1.74324 -1.7633
upperback -6.69254 1.79417 0.134244
thorax 0.982835 0.612894 1.39523
lowerneck -12.1437 1.6058 0.252496
upperneck 43.8368 -5.01916 3.08494
head 18.8119 -3.29552 -0.0937287
rclavicle -1.97791e-014 -1.43125e-014
rhumerus -47.8737 -24.7046 -60.5319
rradius 4.55852
rwrist 23.3411
rhand -8.52186 20.6433
rfingers 7.12502
rthumb 17.4067 -8.59735
lclavicle -1.97791e-014 -1.43125e-014
lhumerus -47.882 12.0837 71.5264
lradius 45.4246
lwrist 2.27175
lhand 4.92954 16.0203
lfingers 7.12502
lthumb 30.3028 43.5523
rfemur -10.4776 -5.71213 30.4034
rtibia 28.9506
rfoot -0.327787 -29.5252
rtoes 4.2637
lfemur -37.0236 -4.2657 -23.2659
ltibia 27.3681
lfoot -41.9291 28.1849
ltoes 17.1586
51
root -3.73952 17.3165 14.6652 -156.274 -20.8049 -175.779
lowerback -14.3696 1.85586 -1.80161
upperback -6.77866 1.94221 -0.0457056
thorax 0.836986 0.683742 1.24709
lowerneck -12.0623 1.54165 0.501545
upperneck 43.8587 -5.23091 3.09855
head 18.8082 -3.34283 -0.172713
rclavicle 2.73329e-014 4.17448e-014
rhumerus -48.3672 -24.9326 -60.4176
rradius 5.0555
rwrist 23.1413
rhand -8.15626 20.5209
rfingers 7.12502
rthumb 17.7585 -8.68819
lclavicle 2.73329e-014 4.17448e-014
lhumerus -47.7334 11.4475 71.8389
lradius 45.6005
lwrist 1.61753
lhand 4.88371 16.597
lfingers 7.12502
lthumb 30.259 44.137
rfemur -10.4408 -5.79083 30.2742
rtibia 29.1543
rfoot -0.629198 -29.4311
rtoes 5.3136
lfemur -36.9557 -3.99147 -23.4625
ltibia 27.3492
lfoot -40.9441 28.4927
ltoes 16.1579
52
root -3.74652 17.3114 14.6547 -156.355 -20.6367 -175.977
lowerback -14.2465 1.81891 -2.03525
upperback -6.70049 1.93719 -0.0855901
thorax 0.84584 0.691418 1.33411
lowerneck -12.216 1.56191 0.365456
upperneck 43.8249 -5.18539 3.23446
head 18.8381 -3.31965 -0.07492
rclavicle -4.9895e-014 4.01545e-014
rhumerus -48.367 -24.8292 -60.4676
rradius 5.69112
rwrist 22.9674
rhand -7.81343 20.2124
rfingers 7.12502
rthumb 18.0883 -8.96646
lclavicle -4.9895e-014 4.01545e-014
lhumerus -47.6125 11.2979 72.1703
lradius 45.9822
lwrist 1.16569
lhand 5.37766 16.5739
lfingers 7.12502
lthumb 30.7301 44.0265
rfemur -10.2659 -5.95885 29.9251
rtibia 29.2843
rfoot -0.582187 -29.1573
rtoes 6.25438
lfemur -36.7805 -3.88367 -23.7804
ltibia 27.4005
lfoot -40.1182 28.4315
ltoes 14.9957
53
root -3.75148 17.3043 14.6434 -156.395 -20.4476 -176.022
lowerback -14.2557 1.77257 -2.16531
upperback -6.57366 1.90926 -0.0208868
thorax 0.977614 0.685817 1.47268
lowerneck -12.5671 1.54258 0.0421941
upperneck 43.8507 -5.13886 3.35022
head 18.9636 -3.3229 0.0437203
rclavicle 1.22253e-014 -4.37326e-015
rhumerus -47.9715 -24.7398 -60.6489
rradius 5.96548
rwrist 22.884
rhand -7.9563 20.0758
rfingers 7.12502
rthumb 17.9509 -9.11576
lclavicle 1.22253e-014 -4.37326e-015
lhumerus -47.4813 11.1824 72.6373
lradius 46.4619
lwrist 0.827624
lhand 5.54198 16.3292
lfingers 7.12502
lthumb 30.8868 43.7522
rfemur -10.1707 -5.93975 29.7491
rtibia 29.3754
rfoot -0.576256 -28.9978
rtoes 7.24333
lfemur -36.7047 -3.8431 -23.8671
ltibia 27.4834
lfoot -40.9003 28.1969
ltoes 15.2017
54
root -3.75148 17.2963 14.6313 -156.456 -20.4088 -175.904
lowerback -14.3068 1.99902 -2.03001
upperback -6.64579 2.18661 -0.2147
thorax 0.931724 0.8154 1.23504
lowerneck -12.2797 1.34222 0.193549
upperneck 43.7844 -5.61566 3.52387
head 18.8681 -3.47796 0.0133237
rclavicle 4.52235e-015 3.1408e-014
rhumerus -48.35 -25.2647 -60.491
rradius 6.0164
rwrist 22.7447
rhand -7.99877 20.2547
rfingers 7.12502
rthumb 17.91 -8.94058
lclavicle 4.52235e-015 3.1408e-014
lhumerus -47.3407 10.1881 73.0085
lradius 46.6938
lwrist 0.508157
lhand 5.34054 16.6597
lfingers 7.12502
lthumb 30.6947 44.1189
rfemur -10.0786 -5.90746 29.8235
rtibia 29.4149
rfoot -0.94078 -28.9084
rtoes 8.71803
lfemur -36.7168 -3.81708 -23.7395
ltibia 27.5945
lfoot -42.0201 28.4138
ltoes 15.4754
55
root -3.75284 17.2913 14.6192 -156.526 -20.3629 -175.902
lowerback -14.285 1.74959 -2.21467
upperback -6.57102 1.88211 0.0690454
thorax 0.991739 0.673748 1.59105
lowerneck -12.4713 1.51568 -0.0354917
upperneck 43.8917 -5.20222 3.34994
head 18.9671 -3.37448 0.0433063
rclavicle -3.56322e-014 -8.74653e-015
rhumerus -47.5909 -24.6694 -60.766
rradius 5.94801
rwrist 22.5267
rhand -7.77747 20.285
rfingers 7.12502
rthumb 18.1229 -8.89072
lclavicle -3.56322e-014 -8.74653e-015
lhumerus -47.4149 10.7257 73.3037
lradius 46.8545
lwrist -0.0226688
lhand 4.8595 17.0906
lfingers 7.12502
lthumb 30.236 44.6349
rfemur -9.96175 -5.92609 29.778
rtibia 29.5093
rfoot -1.34799 -28.6788
rtoes 8.28543
lfemur -36.6686 -3.77551 -23.762
ltibia 27.707
lfoot -42.1376 28.7336
ltoes 14.9568
56
root -3.75386 17.2914 14.6077 -156.6 -20.31 -175.849
lowerback -14.2944 2.14173 -2.02819
upperback -6.73507 2.36513 -0.349943
thorax 0.830768 0.89911 1.11697
lowerneck -11.8771 1.25913 0.451014
upperneck 43.8401 -5.95297 3.57728
head 18.8044 -3.59527 -0.0709152
rclavicle 2.78795e-014 -3.45885e-014
rhumerus -48.5194 -25.533 -60.4004
rradius 5.92058
rwrist 22.4345
rhand -7.70253 20.241
rfingers 7.12502
rthumb 18.195 -8.92795
lclavicle 2.78795e-014 -3.45885e-014
lhumerus -47.2208 9.21478 73.6092
lradius 46.8512
lwrist -0.547512
lhand 4.39912 16.8303
lfingers 7.12502
lthumb 29.7967 44.4542
rfemur -9.92215 -5.87033 29.774
rtibia 29.6265
rfoot -1.30744 -28.402
rtoes 6.24898
lfemur -36.6794 -3.67278 -23.7493
ltibia 27.8966
lfoot -41.9489 28.8061
ltoes 14.99
57
root -3.75443 17.294 14.6001 -156.469 -20.0306 -176.062
lowerback -14.3671 2.32606 -2.22249
upperback -6.82264 2.62452 -0.628468
thorax 0.771411 1.02268 0.973853
lowerneck -11.5936 1.13826 0.699726
upperneck 43.8139 -6.29987 3.65338
head 18.7231 -3.70007 -0.140797
rclavicle 2.89729e-014 -2.14687e-014
rhumerus -48.8203 -25.9434 -60.3486
rradius 5.8583
rwrist 22.4353
rhand -8.11013 20.504
rfingers 7.12502
rthumb 17.8029 -8.70113
lclavicle 2.89729e-014 -2.14687e-014
lhumerus -47.007 8.72288 73.6576
lradius 46.7929
lwrist -1.24835
lhand 4.28602 16.1015
lfingers 7.12502
lthumb 29.6887 43.7447
rfemur -10.0754 -5.74994 29.4375
rtibia 29.7971
rfoot -1.03508 -28.2583
rtoes 4.6768
lfemur -36.6822 -3.77323 -23.9196
ltibia 28.0358
lfoot -42.5078 27.6856
ltoes 17.2909
